PathFileType	4	(X/Y/Z)	Kaydara	
DataRate	CameraRate	NumFrames	NumMarkers	Units	OrigDataRate	OrigDataStartFrame	OrigNumFrames	
24.00	24.00	14	28	mm	24.00	63	250	
Frame#	Time	reference			Hips			Spine			Spine1			Neck			Head			Head_End			LeftShoulder			LeftArm			LeftForeArm			LeftHand			LeftHand_End			RightShoulder			RightArm			RightForeArm			RightHand			RightHand_End			LeftUpLeg			LeftLeg			LeftFoot			LeftFoot_End			RightUpLeg			RightLeg			RightFoot			RightFoot_End			Tail			Tail1			Tail1_End			
		X1	Y1	Z1	X2	Y2	Z2	X3	Y3	Z3	X4	Y4	Z4	X5	Y5	Z5	X6	Y6	Z6	X7	Y7	Z7	X8	Y8	Z8	X9	Y9	Z9	X10	Y10	Z10	X11	Y11	Z11	X12	Y12	Z12	X13	Y13	Z13	X14	Y14	Z14	X15	Y15	Z15	X16	Y16	Z16	X17	Y17	Z17	X18	Y18	Z18	X19	Y19	Z19	X20	Y20	Z20	X21	Y21	Z21	X22	Y22	Z22	X23	Y23	Z23	X24	Y24	Z24	X25	Y25	Z25	X26	Y26	Z26	X27	Y27	Z27	X28	Y28	Z28	

63	2.583	0.00000	0.00000	0.00000	161.23569	470.08789	101.04462	161.23605	470.08789	101.04478	169.26358	449.32285	289.73598	164.40434	444.23792	514.70596	148.09979	468.16746	651.67900	126.94611	416.11898	812.12674	207.73004	412.79727	488.75408	248.18664	368.23817	541.45860	246.69010	229.60841	479.14035	185.27587	112.32971	598.12771	169.65644	64.28290	649.42618	121.75149	413.46205	486.91277	77.85370	356.14292	521.40730	66.63078	248.47819	414.69994	116.52672	82.88712	456.81853	140.77777	22.90617	488.41232	213.34835	384.84608	58.98306	250.84371	284.35437	177.70772	218.35504	111.04628	141.53043	214.20203	12.36513	185.22004	118.09065	385.31604	49.05114	114.62881	245.70946	127.14086	139.75052	126.79668	-5.63210	154.35791	20.38111	-16.87273	168.03736	452.35416	34.96981	173.31190	341.96173	-11.78117	172.45530	230.62710	-56.54571 
64	2.625	0.00000	0.00000	0.00000	162.98721	470.85144	107.35565	162.98757	470.85143	107.35581	172.01970	449.27342	295.91034	165.57301	444.27382	520.84233	149.36380	468.98741	657.68741	128.82392	416.30498	818.00794	208.58983	412.17791	495.18035	248.07328	366.99334	548.08996	242.17419	226.21581	491.07327	184.59373	104.05962	607.03166	170.06725	53.88882	656.58837	122.64558	414.14753	492.76167	77.92574	356.97277	526.42997	66.45203	249.71849	419.33664	116.66685	83.39975	458.07333	141.08404	23.03144	488.78917	214.46227	386.23944	63.28529	252.87074	284.04867	180.25480	219.51430	111.23429	142.53817	215.18592	12.16925	185.33280	119.13726	387.25463	54.06552	116.06228	246.39709	129.89221	139.84065	127.66575	-3.28986	153.93098	21.36950	-16.19616	169.23866	454.36432	40.90475	175.43677	343.91993	-5.60959	175.83546	232.06015	-49.05184 
65	2.667	0.00000	0.00000	0.00000	164.35947	471.36425	113.93829	164.35983	471.36424	113.93845	174.84086	449.28993	302.36051	166.85457	443.78063	527.23119	150.58222	468.89359	663.99604	130.19971	417.24847	824.67378	209.45088	410.98593	501.75193	248.07993	365.48016	555.01578	239.21172	223.92493	500.35788	186.20469	95.12912	611.19959	173.08780	43.32256	659.44918	123.57345	414.51163	498.78912	77.99335	357.50407	531.57577	66.18003	251.02003	423.75322	116.40835	83.98647	459.26223	140.47325	22.99829	489.01651	215.24849	387.63895	67.55455	254.50583	283.71569	182.70162	219.71700	111.46107	143.73898	215.05680	12.03770	185.65884	119.83539	388.97538	59.34193	117.70535	246.83924	132.77740	140.12735	128.65007	-1.12025	153.75114	22.54503	-15.95652	169.90197	456.28315	47.09168	177.21962	345.94645	0.48453	179.45827	233.66131	-41.78881 
66	2.708	0.00000	0.00000	0.00000	165.62222	471.58901	120.63904	165.62257	471.58900	120.63919	178.27570	449.66717	308.94567	168.22167	443.28251	533.71024	151.83448	468.62593	670.41885	131.61995	417.68691	831.34303	210.56175	409.98476	508.45734	248.19063	364.07779	562.09159	237.81660	222.70773	507.21991	187.72056	86.98403	610.91877	175.33668	34.41783	658.53630	124.77403	414.77156	504.75667	78.30802	357.93138	536.57610	67.11522	252.29364	427.85860	116.54712	84.38041	460.19460	140.48657	23.01419	489.26495	215.87629	388.74630	72.03160	255.50509	283.02624	185.40205	219.16895	111.48649	144.73504	214.06074	11.86391	186.12642	120.39936	390.50167	64.68531	120.12511	247.07983	135.60843	140.53820	129.53434	0.82575	153.56288	23.52992	-15.21866	170.54157	457.92830	53.43924	178.82671	347.84699	6.39220	183.13790	235.32138	-35.07344 
67	2.750	0.00000	0.00000	0.00000	166.95515	471.74118	127.43011	166.95551	471.74116	127.43026	181.36922	450.18990	315.65297	169.68025	442.77817	540.30691	152.87053	468.32650	676.92605	133.32455	418.63336	838.32167	211.76631	409.07251	515.17081	248.31370	362.93485	569.35217	240.97102	222.38921	511.93247	186.60478	82.70688	607.93847	172.74358	31.18615	656.28593	126.07418	414.97397	510.90761	78.93073	358.08201	541.61871	68.03232	253.50247	431.85327	116.74809	84.81103	461.07579	141.05866	23.23563	489.38590	216.58467	389.57894	77.05803	256.14278	282.53977	189.20883	218.48693	111.91578	145.97117	213.04020	12.03844	186.70013	121.06314	391.75816	70.44131	122.74648	247.15736	138.90855	140.89375	130.14435	3.34071	153.39069	24.48868	-15.22563	171.34182	459.20857	59.97406	180.52397	349.65450	11.87461	187.06739	237.18162	-29.44164 
68	2.792	0.00000	0.00000	0.00000	168.37830	471.59969	134.10400	168.37866	471.59967	134.10415	183.64736	451.37800	322.40696	170.73550	442.51606	546.94139	154.24721	468.39611	683.53727	133.76709	418.29714	844.69141	212.69204	408.66062	521.79007	248.60715	362.22613	576.14040	244.06636	223.15950	514.95325	185.77945	81.23779	605.20209	170.16825	30.54840	653.89370	127.07094	415.25060	517.12727	79.41616	358.21010	546.75456	69.38114	254.80054	435.80472	117.17492	85.31418	461.76837	141.12886	23.53245	489.93257	217.49797	390.04430	82.26729	256.87360	281.97778	193.49327	218.16964	112.33192	147.42491	212.52471	12.13001	187.32115	121.95061	392.60328	76.18061	124.98130	247.18746	142.85176	140.88840	130.98455	6.30926	152.67694	25.65964	-14.46806	172.37887	460.05210	66.44843	182.39537	351.09017	17.18454	191.00673	238.87021	-24.43905 
69	2.833	0.00000	0.00000	0.00000	169.65820	471.19312	140.14923	169.65856	471.19310	140.14937	186.65966	452.43659	328.45539	172.10580	442.41040	552.84037	155.37154	467.73717	689.51002	134.30798	419.36821	851.11686	214.19794	408.62944	527.81579	249.97026	362.19661	582.26162	240.95427	224.64080	518.22158	185.54779	80.24909	606.34166	171.05473	29.12985	654.92941	128.62196	415.36318	522.56687	80.37136	358.21945	551.00709	70.34189	255.90312	439.04779	117.37045	85.84487	462.55289	141.21334	23.80579	490.24159	218.43200	390.08024	87.30146	257.32018	281.28763	197.98979	218.18632	112.55199	149.03233	212.58448	11.93386	187.87315	122.86119	392.81969	81.67935	127.05195	246.47497	146.22118	140.99853	131.39621	8.51723	152.40020	26.43645	-14.23037	173.33315	460.29515	72.36754	184.37075	352.06038	21.73783	195.05894	240.36271	-20.79910 
70	2.875	0.00000	0.00000	0.00000	170.92522	470.96405	145.88196	170.92558	470.96403	145.88210	189.29831	454.54816	334.27786	173.05818	443.03207	558.47553	156.00199	467.76474	695.21417	134.57923	419.14283	856.69784	215.40502	409.49479	533.55310	250.52565	362.39247	587.84794	240.57543	225.25584	523.05171	185.58624	78.44638	607.35569	171.93651	27.06946	655.91588	129.85849	416.10036	527.69646	81.32284	358.71151	555.14062	71.27986	257.24775	442.40930	117.39035	86.64912	463.71455	141.29945	24.35982	490.77731	219.44116	390.18987	92.28341	257.90508	280.71737	202.44842	218.09915	113.01370	150.57384	212.03372	11.99002	188.27565	123.83997	392.92232	87.20018	128.77529	245.78595	149.86212	141.24869	131.90698	11.02408	152.03305	27.31997	-13.65908	174.23379	460.47379	78.01712	186.30583	352.99218	26.03701	198.82216	242.00618	-17.84292 
71	2.917	0.00000	0.00000	0.00000	172.05490	470.79319	151.29913	172.05526	470.79317	151.29927	191.14729	456.34825	339.78492	174.07930	443.85499	563.86874	157.07552	468.06939	700.70663	134.65125	419.26016	861.99771	216.44255	410.33848	538.94626	251.35179	363.07693	593.23904	240.15965	226.82954	526.79056	184.85130	77.54619	606.41128	170.41862	26.45761	655.04923	130.93203	417.15674	532.81400	82.21726	359.58848	559.55608	72.66563	259.01434	445.98797	117.35896	87.81497	465.41132	140.86562	25.05790	491.73589	220.41314	390.30841	97.12580	258.74309	279.99746	206.49829	218.08853	113.30961	152.07060	212.03360	12.01328	189.03532	124.77769	392.86038	92.62694	130.41570	244.91488	153.29264	140.98951	132.23627	13.32217	151.39135	28.09547	-13.33301	174.97654	460.54804	83.37911	187.90618	353.85057	30.00836	201.97885	243.71327	-15.50793 
72	2.958	0.00000	0.00000	0.00000	172.78919	470.57838	156.17950	172.78956	470.57836	156.17964	193.61734	458.56434	344.65210	175.16150	445.30331	568.58174	158.63866	468.95269	705.57728	133.41324	419.92726	866.38830	217.62336	411.80790	543.79912	252.10095	364.07177	597.95236	239.01763	228.46048	530.55489	184.43492	76.82109	606.12085	170.51417	25.73772	654.91325	132.16272	418.78429	537.16952	83.03700	361.29163	563.31582	72.56866	260.83262	449.72661	116.48488	89.26177	467.58137	140.07979	26.12649	492.90354	221.08179	390.32237	101.60968	259.69149	279.42465	210.28819	218.06264	113.85115	153.25784	211.93764	12.21870	189.27628	125.40406	392.45305	97.85143	131.95175	243.90550	156.93393	140.86830	132.63229	15.72921	150.75509	28.96007	-12.87717	175.23053	460.36424	88.23586	189.16480	354.51771	33.44251	204.54386	245.36465	-13.98208 
73	3.000	0.00000	0.00000	0.00000	173.45112	470.08335	160.74585	173.45148	470.08333	160.74598	196.26464	459.97950	349.10063	176.98812	446.55577	572.95142	160.47832	469.93712	709.99453	131.26230	420.91478	870.12958	219.31859	412.82320	548.26586	253.14002	364.22128	602.06158	239.15905	229.13787	533.78992	184.18935	76.03179	606.04536	170.46235	24.77860	654.71441	133.92609	420.34877	541.36448	84.10540	363.14318	566.81624	72.59792	262.68895	453.32336	115.17772	90.67598	470.13055	139.38523	27.21154	494.01062	221.81967	390.00455	105.98329	260.86481	278.66477	214.05253	218.23763	114.21830	154.55219	211.86897	12.30822	189.73420	126.11114	391.64161	102.80706	133.70651	242.67023	160.68472	141.06439	133.00803	18.13624	150.32421	29.81842	-12.36235	175.52991	459.79395	92.80150	190.29262	354.80243	36.59823	206.82368	246.83825	-13.10546 
74	3.042	0.00000	0.00000	0.00000	174.35028	469.56013	165.30975	174.35065	469.56011	165.30988	199.82800	461.68438	353.42920	179.18506	447.84649	577.13289	162.92913	471.19910	714.21124	130.04095	421.81372	873.52054	221.42407	413.88532	552.60462	254.83039	364.82293	606.24151	238.22235	230.40839	537.24210	184.05802	75.39770	605.95819	170.44682	23.91970	654.42207	136.12568	422.01206	545.23692	85.35507	365.48235	570.31898	70.56523	264.26555	457.88889	113.54951	92.20895	473.14872	138.64020	28.53691	495.51665	222.78663	389.67829	110.31993	261.57562	277.77501	217.89828	218.57578	114.36346	155.86856	211.74874	12.15642	190.09003	127.05110	390.78306	107.79416	135.99510	241.31547	164.18062	141.20944	133.32014	20.27152	149.90447	30.58366	-11.87835	176.02316	459.19398	97.36586	191.23920	354.86471	40.06108	208.14782	247.96820	-11.77745 
75	3.083	0.00000	0.00000	0.00000	175.25318	469.40262	170.07294	175.25355	469.40260	170.07307	203.53177	463.12570	357.85204	181.78127	449.00361	581.43299	165.48644	472.56608	718.47080	127.81456	423.39852	876.78499	223.78178	414.67224	557.01074	256.35969	364.76817	610.38001	238.76843	231.15723	540.07583	184.24982	75.12699	606.15365	170.80911	23.32697	654.32106	138.60234	423.67522	549.29370	86.76318	367.98382	574.06345	67.68234	265.94855	463.02817	111.24028	93.90697	476.75356	137.28242	29.99479	497.27271	223.76527	389.81733	114.72109	262.10866	277.11931	221.62746	218.85811	114.78351	157.00173	212.00725	12.23954	190.19506	128.01109	390.41194	112.80392	138.79494	240.52151	167.72711	141.15938	133.66279	22.89745	149.42646	31.57455	-11.36110	176.54978	459.09059	102.11259	191.81268	355.34333	43.77295	208.59152	249.43175	-10.08988 
76	3.125	0.00000	0.00000	0.00000	175.84827	469.45629	174.89532	175.84864	469.45628	174.89545	206.69818	464.32131	362.30393	183.93919	449.79294	585.75843	167.87157	473.83110	722.74044	123.90593	424.90656	879.49953	225.66831	415.08900	561.39764	257.67157	364.69502	614.65413	238.20815	231.96661	543.18134	183.87037	74.65943	606.31492	170.66358	22.73342	654.41134	140.61909	425.01436	553.38139	87.44979	370.67207	578.32761	63.28505	268.25761	468.63965	107.48266	96.28997	481.19694	134.66008	32.13670	499.35573	224.22510	390.10012	119.09793	262.11707	276.47652	225.18236	218.87667	115.11873	158.14551	211.88079	12.29430	190.42852	128.45642	390.28927	117.99473	142.90237	240.05332	171.10275	140.88763	134.11476	25.59341	147.69832	32.57749	-10.57010	176.61094	459.17759	106.92184	191.99970	355.89999	47.78735	208.59253	250.79567	-7.69020 
